<?xml version="1.0" encoding="UTF-8"?>
<svg viewBox="0 0 640 480" xmlns="http://www.w3.org/2000/svg">
 <g fill-rule="evenodd">
  <path d="m191.03 4.198c-2.099 4.235-5.077 7.59-7 12 1.11 7.135 11.503 3.079 15 1 1.429 2.238 3.21 4.123 5 6 8.42-1.172 15.477-0.191 24-2 7.813-1.658 13.692-6.221 23-1 3.052 1.712 9.232 7.731 10 9 1.012 1.673 1.402 7.464 3 11 0.80701 1.785 2.761 3.829 3 5 2.241 10.958-0.73999 24.44 0 35 6.004 7.539 3.183 14.013 6 23-4.337 4.753-11.476 0.972-18 2-2.974 0.469-4.7 2.798-8 4-10.217 3.723-24.006 2.971-29 12 8.085 3.75 16.02-7.265 28-6-0.617 6.717-10.562 4.104-12 10 0.18903 3.811 7.387 0.61301 9 3-2.001 8.244-1.693 16.411-8 22-16.722-5.206-35.011-8.998-44-22-3.77-5.453-3.648-12.777-9-18-3.485 0.515-1.466 6.534-2 10-15.764 11.756-37.554-18.976-18-28 4.26 0.074013 6.994 1.673 12 1 2.507-0.827 3.163-3.503 5-5-5.789-12.275-4.409-28.388-11-38-0.603-3.727 2.557-6.325 0-9-5.185-1.328-6.2 5.07-10 2 1.942-10.725 9.746-15.587 21-17 2.429-3.159-3.866-4.277-3-9 1.969-6.828 7.989-14.502 15-13zm32 41c-5.78-11.117-13.4-8.234-23-2-4.61 2.994-10.22 6.881-11 10 10.655-0.345 12.393-9.607 23-10 3.595 1.405 4.251 5.749 8 7 10.773 0.44 12.817-7.85 21-10 5.488-0.154 6.853 3.813 13 3-2.894-19.859-23.013-1.428-31 2zm22 12c4.229 3.438 10.196 5.137 16 7 9.066-8.379-17.116-21.754-16-7zm-31 1c2.299-13.776-26.254-1.591-19 11 6.615 0.61501 8.379-3.621 12-6 4.622-0.921 6.446-1.68 7-5zm29 31c-0.94998 5.383-11.826 0.841-10 9 1.406 3.927 9.483 1.183 14 2 7.913-11.393-0.47101-13.605-5-23-2.144-4.446-1.193-6.676-5-7-4.284 8.833 6.684 10.49 6 19zm6-10c2.05 3.003 7.658 2.128 10 0v-6c-3.664-4.225-11.849-1.313-10 6zm-40 8c12.478 3.841 8.388-15.948 0-10-4.486 1.779-2.692 7.664 0 10zm-51 16c11-4.831 11.548 5.41 16 10 12.788-10.739-16.025-25.961-16-10zm51 22c1.85 7.552 14.271 17.066 20 9-1.05-2.95-6.422-1.578-9-3-7.969-5.214-4.349-15.492-4-23h-5c-0.57696 5.953-3.527 10.767-2 17z" fill="#fff"/>
  <path d="m254.03 43.198c-6.147 0.813-7.512-3.154-13-3-8.183 2.15-10.227 10.44-21 10-3.749-1.251-4.405-5.595-8-7-10.607 0.393-12.345 9.655-23 10 0.78003-3.119 6.39-7.006 11-10 9.6-6.234 17.22-9.117 23 2 7.987-3.428 28.106-21.859 31-2z"/>
  <path d="m261.03 64.198c-5.804-1.863-11.771-3.562-16-7-1.116-14.754 25.066-1.379 16 7z"/>
  <path d="m207.03 63.198c-3.621 2.379-5.385 6.615-12 6-7.254-12.591 21.299-24.776 19-11-0.55396 3.32-2.378 4.079-7 5z"/>
  <path d="m105.03 74.198c-0.119 2.881 0.54599 6.546-1 8-15.704-1.629-26.78-7.887-42-10 0.15399-2.488-1.571-3.096-2-5-0.42201-3.422 2.995-3.005 4-5 13.029 4.637 29.044 6.289 41 12z"/>
  <path d="m237.03 70.198c3.807 0.32401 2.856 2.554 5 7 4.529 9.395 12.913 11.607 5 23-4.517-0.817-12.594 1.927-14-2-1.826-8.159 9.05-3.617 10-9 0.68402-8.51-10.284-10.167-6-19z"/>
  <path d="m259.03 73.198v6c-2.342 2.128-7.95 3.003-10 0-1.849-7.313 6.336-10.225 10-6z"/>
  <path d="m209.03 77.198c8.388-5.948 12.478 13.841 0 10-2.692-2.336-4.486-8.221 0-10z"/>
  <path d="m296.03 88.198c-0.34601 8.929-5.1 11.918-6 18-3.053 1.272-7.594 0.151-11-1 0.83203-6.499-0.95099-10.382-2-15 5.241-3.466 12.827-3.133 19-2z" fill="#fff"/>
  <path d="m174.03 113.2c-4.452-4.59-5-14.831-16-10-0.024963-15.961 28.788-0.739 16 10z"/>
  <path d="m71.027 132.2c-2.688-2.646-6.476-4.191-7-9 13.022-5.312 26.655-10.012 42-13 4.009-4.776 15.66-6.359 15 2-0.18701 2.371-8.06 7.422-15 9-2.434 0.554-4.78-0.69699-7 0-3.115 0.979-5.838 3.699-9 5-6.477 2.665-13.876 3.022-19 6z"/>
  <path d="m211.03 108.2h5c-0.349 7.508-3.969 17.786 4 23 2.578 1.422 7.95 0.050003 9 3-5.729 8.066-18.15-1.448-20-9-1.527-6.233 1.423-11.047 2-17z"/>
  <g fill="#fff">
   <path d="m279.03 141.2c0.04303 5.296-9.127 6.58-12 3-0.974-7.823 10.159-8.775 12-3z"/>
   <path d="m208.03 153.2c10.787 0.213 14.617 7.383 27 6-1.064 12.603-5.431 21.903-16 25-2.58-10.21-8.035-18.8-11-31z"/>
   <path d="m275.03 157.2c1.478 6.479-8.498 5.707-12 4-1.42-8.493 7.785-5.597 12-4z"/>
  </g>
  <path d="m262.03 184.2c1.578 2.755 3.402 5.265 6 7-3.668 6.37-13.842 4.545-21 7-4.928 1.69-9.464 6.628-14 4 3.217-7.117 14.195-6.472 20-11-8.893-3.772-17.984 5.86-25 4 3.96-9.545 18.322-11.088 34-11z"/>
  <path d="m274.03 199.2c-3.084 4.741-16.859 3.591-21 4 0.86902-2.909 1.497-1.125 4-1 3.565-3.463 12.847-9.025 17-3z"/>
  <path d="m269.03 207.2c-2.906 5.104-9.286 4.126-14 6-5.976 2.375-11.298 8.526-19 8 0.224-5.11 6.224-4.443 8-8 10.651 1.082 14.531-13.346 25-6z"/>
  <path d="m244.03 207.2c0.349 3.473-4.696 4.186-6 3v-3c2.337-0.30899 4.131-1.958 6 0z"/>
  <path d="m42.027 467.2c3.221-2.055 7.194-2.513 10-1 3.536-3.033 21.857-5.612 22 2 0.14099 7.485-31.771 11.798-33 3-0.24802-1.777 1.316-2.122 1-4z"/>
  <path d="m319.03 487.2c-4.595 4.738-14.588 4.079-19 9 0.031006 5.303 4.992 5.674 6 10-0.18201 12.152-5.424 19.243-15 22-13.575-2.092-18.004-13.329-21-26 2.275-12.391 9.609-19.724 17-27 14.976-2.423 27.44 1.27 32 12z" fill="#fff"/>
  <path d="m103.03 490.2c-3.617 7.394-36.151 12.385-32-2 11.439-0.96899 26.54-10.24 32 2z"/>
  <path d="m324.03 494.2c3.314 7.045 7.193 16.248 2 24-8.405-1.072-10.256 4.41-17 5 2.18-7.964 1.766-14.859 1-24 4.307-2.026 7.447-5.22 14-5z" fill="#fff"/>
  <path d="m271.03 41.198c6.417-1.771 1.812-13.958 1-18 7.363-0.547 7.723 8.962 7 16-0.255 2.484-2.23 4.229-3 7-3.105 11.179-3.126 25.538 0 34 7.141-1.783 16.469 1.832 24-1 5.083-13.25-6.477-14.952-17-14 1.457-16.418 5.277-34.453-4-46-2.498-3.109-4.553-6.362-7-9-2.192-2.363-8.763-3.18-6-8 9.929-2.21 14.089 8.009 19 17 5.241 9.595 10.25 23.579 5 39 4.032 3.301 11.833 2.834 16 6 1.191 18.191-5.431 28.569-9 42 4.721 0.189 8.639-8.079 10-13 1.081-3.907 5.723-14.958 5-20-0.79199-5.527-7.011-7.813-4-13 5.889-3.282 10.698 1.452 17 2 16.449 1.43 34.692-2.187 46-1 6.661 0.69901 12.462 4.263 19 5 1.912 2.754 3.896 5.438 7 7 2.433 18.432-10.499 21.501-17 31 3.183 4.229 17.207-0.922 21 5 1.247 1.947-4.558 14.667-6 19-0.98798 2.97-0.94498 7.275-2 11-0.91898 3.248-2.133 5.722-3 9-1.684 6.363-2.328 13.807-4 20-0.61298 2.271-3.457 4.775-4 7-0.521 2.131 0.474 4.32 0 6-0.74698 2.649-4.434 10.68-5 14-0.48398 2.841 0.34003 6.243 0 9-1.179 9.564-4.242 18.563-6 27-1.459 7.002-3.023 13.209-5 20-1.03 3.54-2.766 10.656-2 16-2.237 7.135-7.612 23.054-9 32-0.44098 2.848 0.608 5.908 0 9-1.843 9.362-5.656 18.565-7 28-1.68 11.795-0.38699 23.883-6 34 6.125 6.708 11.379 14.061 19 20 1.214 0.94601 1.657 2.842 3 4 2.46 2.121 6.177 3.528 8 6 7.807 10.585 2.602 27.846 11 40 6.232 0.229 10.889-4.658 16-6 3.828-1.005 10.032-1.015 15-1 12.125 0.036011 18.347 0.379 28 8 4.779 3.773 7.586 7.344 11 12 4.795 6.538 8.9821 14.425 8 28-0.26599 3.674-3.324 18.63-6 24-5.587 11.213-21.88 19.197-32 28-11.519 1.402-21.247 0.50403-31 2-4.255 0.65198-8.573 3.401-13 4-9.649 1.306-16.401 1.265-25 4-11.996 3.815-24.051 8.894-34 15-3.938 2.418-7.165 6.918-12 8-4.426 0.98999-10.836-0.177-17 0-18.887 0.54102-30.67-1.995-46-11-4.054-7.581-13.163-10.945-18-18-2.061-3.006-3.23-7.668-5-11-1.824-3.435-3.211-7.01-6-10 0.59802-6.265-2.195-9.139-5-12-7.855-30.849-11.414-66.16-8-101 0.75299-7.688 3.479-15.252 3-23-7.456 4.285-10.026 15.104-14 25-1.247 3.104-3.448 5.561-4 8-1.362 6.014 1.03 11.964-3 16-0.45499 10.431-1.921 22.437 0 38 0.58502 4.738 2.133 9.354 3 15 2.432 15.834 12.094 36.167 13 44 1.224 10.577-2.159 30.322-15 22-2.926-4.484 1.697-11.642-2-14-6.896 0.771-9.611 5.722-13 10-6.644 2.253-17.107 6.795-27 6-11.192-0.89899-23.132-9.245-15-20 8.015 1.716 32.302 5.204 38-4-2.672-9.676-14.013-10.166-22-14-3.438-1.65-5.039-5.502-9-5-2.194-4.807-6.465-7.535-9-12-1.587-15.227 7.371-31.06-7-35-4.891-10.451-9.505-19.113-14-31-3.077-8.137-6.927-27.292-4-40 1.815-7.878 10.374-18.646 15-26 3.633-5.773 4.833-8.032 9-13 8.414-10.032 19.616-24.259 29-33 4.834-13.021 10.461-19.091 14-33-4.642-3.747-8.941 0.15701-13 2-12.189 5.533-24.855 14.138-41 16-6.499-12.611-22.344-24.502-26-39-0.875-3.472-1.921-15.472 0-19 6.346-11.652 17.652-21.769 22-37 1.399-5.066-4.588-2.746-4-7 1.247-7.087 6.968-9.698 11-14-0.69801-3.635-4.484-4.183-5-8 2.859-30.474 20.146-46.521 41-59-8.029-12.056-7.457-31.896 9-34-4.956-5.184-12.845-16.168-17-26-2.609-6.174-6.169-13.847-4-24 2.028-9.494 11.124-16.354 22-19 5.427-3.906 8.072-10.595 11-17 11.581-9.587 31.569-13.113 51-12 12.269 0.703 21.4 8.233 30 11 2.734 6.102 7.779 7.221 9 14 0.836 4.642-1.697 9.039-1 14 0.83102 5.912 5.82 10.395 7 15zm-95-24c-0.86597 4.723 5.429 5.841 3 9-11.254 1.413-19.058 6.275-21 17 3.8 3.07 4.815-3.328 10-2 2.557 2.675-0.603 5.273 0 9 6.591 9.612 5.211 25.725 11 38-1.837 1.497-2.493 4.173-5 5-5.006 0.673-7.74-0.92599-12-1-19.554 9.024 2.236 39.756 18 28 0.534-3.466-1.485-9.485 2-10 5.352 5.223 5.23 12.547 9 18 8.989 13.002 27.278 16.794 44 22 6.307-5.589 5.999-13.756 8-22-1.613-2.387-8.811 0.811-9-3 1.438-5.896 11.383-3.283 12-10-11.98-1.265-19.915 9.75-28 6 4.994-9.029 18.783-8.277 29-12 3.3-1.202 5.026-3.531 8-4 6.524-1.028 13.663 2.753 18-2-2.817-8.987 0.004028-15.461-6-23-0.73999-10.56 2.241-24.042 0-35-0.23898-1.171-2.193-3.215-3-5-1.598-3.536-1.988-9.327-3-11-0.768-1.269-6.948-7.288-10-9-9.308-5.221-15.187-0.658-23 1-8.523 1.809-15.58 0.828-24 2-1.79-1.877-3.571-3.762-5-6-3.497 2.079-13.89 6.135-15-1 1.923-4.41 4.901-7.765 7-12-7.011-1.502-13.031 6.172-15 13zm101 73c1.049 4.618 2.832 8.501 2 15 3.406 1.151 7.947 2.272 11 1 0.90002-6.082 5.654-9.071 6-18-6.173-1.133-13.759-1.466-19 2zm26 24c-11.052-0.145-36.134-5.121-45-2-6.493 2.286-9.103 16.195-12 24-2.555 6.88-3.84 8.783-2 14-6.596 9.07-5.785 25.548-10 37-3.01 2.716-4.462-2.188-9-1-5.819 11.181-13.354 20.646-18 33 1.182 3.693 1.102 7.762 0 12 2.779 1.99 1.544 5.035 3 8 2.407 4.903 8.771 7.796 8 12-12.73-2.603-13.652-17.014-20-26-12.303 6.65-3.591 28.205 2 33 10.179 8.73 26.783-1.693 24-17 7.335-4.526 16.78-14.597 26-19 3.042-1.453 12.017-5.979 15 0 0.49802 5.165-7.517 1.816-10 4-10.128 5.205-18.318 12.349-27 19-0.104 3.104 3.146 2.854 2 7-5.9 20.331-7.994 49.022-9 71-5.773 9.907-2.857 29.656-4 36-0.45902 2.548-2.651 4.476-3 7-0.62799 4.546 0.54098 10.246 0 15-0.76599 6.734-3.363 13.331-4 20-1.958 20.492-0.14902 49.461 2 64 0.991 6.704-0.028992 14.192 2 21 0.67502 2.266 3.092 4.428 4 7 5.194 14.718 7.462 25.34 14 35 6.082 8.986 10.753 12.616 20 18 5.254 3.059 11.062 6.989 15 8 30.251 7.763 52.611-7.089 60-30-12.51-2.294-21.328 12.751-34 13-6.43 0.12598-10.045-3.039-17-5-6.002-10.664-14.789-15.073-13-31 2.481-22.094 17.238-31.966 35-37 9.147 3.372 28.237-3.637 40-7-1.195-8.235-4.061-16.294-5-25-1.049-9.711 0.24899-19.618 1-30 1.319-18.243 0.354-31.703 2-43 1.188-8.155 1.854-18.217 4-30 0.39801-2.188 2.422-3.732 3-6 3.407-13.356 3.13-28.21 6-42 2.769-13.302 10.219-26.057 10-40 6.282-8.884 4.801-22.612 8-36 0.47699-1.996 2.497-4.237 3-6 1.397-4.897 0.776-10.318 2-15 1.529-5.85 5.905-10.808 4-17 4.748-6.907 6.652-16.197 7-25 3.744-8.59 6.88-17.787 9-28-24.594-3.175-61.725 0.357-89 0zm-84 70c10.569-3.097 14.936-12.397 16-25-12.383 1.383-16.213-5.787-27-6 2.965 12.2 8.42 20.79 11 31zm201 336c6.39-5.182 16.46-10.204 22-18 1.254-1.764 1.592-5.457 3-8 1.426-2.576 4.332-4.977 5-7 2.149-6.513 1.828-17.105 0-22-9.0599-24.248-46.904-32.505-67-12-23.19 2.551-43.793 14.344-69 18 2.941 7.631 11.582 9.848 16 19 7.913 16.395 4.195 39.798-4 54 28.301-11.033 55.77-22.897 94-24zm-133-45c-7.391 7.276-14.725 14.609-17 27 2.996 12.671 7.425 23.908 21 26 9.576-2.757 14.818-9.848 15-22-1.008-4.326-5.969-4.697-6-10 4.412-4.921 14.405-4.262 19-9-4.56-10.73-17.024-14.423-32-12zm23 24c0.76599 9.141 1.18 16.036-1 24 6.744-0.59003 8.595-6.072 17-5 5.193-7.752 1.314-16.955-2-24-6.553-0.22-9.693 2.974-14 5z"/>
  <g fill="#fff">
   <path d="m326.03 544.2c8.195-14.202 11.913-37.605 4-54-4.418-9.152-13.059-11.369-16-19 25.207-3.656 45.81-15.449 69-18 20.096-20.505 57.94-12.248 67 12 1.828 4.895 2.149 15.487 0 22-0.66797 2.023-3.574 4.424-5 7-1.408 2.543-1.746 6.236-3 8-5.54 7.796-15.61 12.818-22 18-38.23 1.103-65.699 12.967-94 24z"/>
   <path d="m392.03 114.2c-2.12 10.213-5.256 19.41-9 28-0.34799 8.803-2.252 18.093-7 25 1.905 6.192-2.471 11.15-4 17-1.224 4.682-0.603 10.103-2 15-0.50299 1.763-2.523 4.004-3 6-3.199 13.388-1.718 27.116-8 36 0.21899 13.943-7.231 26.698-10 40-2.87 13.79-2.593 28.644-6 42-0.578 2.268-2.602 3.812-3 6-2.146 11.783-2.812 21.845-4 30-1.646 11.297-0.681 24.757-2 43-0.75101 10.382-2.049 20.289-1 30 0.939 8.706 3.805 16.765 5 25-11.763 3.363-30.853 10.372-40 7-17.762 5.034-32.519 14.906-35 37-1.789 15.927 6.998 20.336 13 31 6.955 1.961 10.57 5.126 17 5 12.672-0.24902 21.49-15.294 34-13-7.389 22.911-29.749 37.763-60 30-3.938-1.011-9.746-4.941-15-8-9.247-5.384-13.918-9.014-20-18-6.538-9.66-8.806-20.282-14-35-0.90799-2.572-3.325-4.734-4-7-2.029-6.808-1.009-14.296-2-21-2.149-14.539-3.958-43.508-2-64 0.63699-6.669 3.234-13.266 4-20 0.54098-4.754-0.62799-10.454 0-15 0.349-2.524 2.541-4.452 3-7 1.143-6.344-1.773-26.093 4-36 1.006-21.978 3.1-50.669 9-71 1.146-4.146-2.104-3.896-2-7 8.682-6.651 16.872-13.795 27-19 2.483-2.184 10.498 1.165 10-4-2.983-5.979-11.958-1.453-15 0-9.22 4.403-18.665 14.474-26 19 2.783 15.307-13.821 25.73-24 17-5.591-4.795-14.303-26.35-2-33 6.348 8.986 7.27 23.397 20 26 0.771-4.204-5.593-7.097-8-12-1.456-2.965-0.22098-6.01-3-8 1.102-4.238 1.182-8.307 0-12 4.646-12.354 12.181-21.819 18-33 4.538-1.188 5.99 3.716 9 1 4.215-11.452 3.404-27.93 10-37-1.84-5.217-0.55499-7.12 2-14 2.897-7.805 5.507-21.714 12-24 8.866-3.121 33.948 1.855 45 2 27.275 0.357 64.406-3.175 89 0zm-136 18c9.088 13.746-7.673 26.92-3 39 18.885 2.588 36.408 3.561 30-18 4.116-3.883 6.076-9.924 5-19-7.905-7.836-21.147-6.608-32-2zm39 6c1.486 11.265-4.706 21.405-8 31 1.834 1.167 3.386 2.614 5 4 2.928 0.261 3.072-2.261 6-2 3.791-11.876 8.548-22.786 10-37-6.334-1.908-9.185 0.998-13 4zm21 1c1.612 10.875-7.339 19.136-7 32 1.763 0.903 3.097 2.237 4 4h19c1.504-2.83 4.044-4.623 4-9-0.77899-0.22099-1.162-0.83701-1-2-3.891-4.011-10.691 0.84401-14-4 0.79401-8.98 9.235-15.285 6-25-3.774-2.26-8.285 2.01-11 4zm33-1c1.329 16.272-8.116 20.12-8 37 6.639 1.736 15.89-1.033 25 0 1.662-3.42 4.421-5.099 4-8-1.053-7.253-10.791-2.505-17-4 1.462-9.872 6.875-15.792 8-26-3.277-4.197-8.967-0.845-12 1zm-121 57c7.016 1.86 16.107-7.772 25-4-5.805 4.528-16.783 3.883-20 11 4.536 2.628 9.072-2.31 14-4 7.158-2.455 17.332-0.63 21-7-2.598-1.735-4.422-4.245-6-7-15.678-0.087997-30.04 1.455-34 11zm29 7c-2.503-0.125-3.131-1.909-4 1 4.141-0.409 17.916 0.741 21-4-4.153-6.025-13.435-0.463-17 3zm-13 11c-1.776 3.557-7.776 2.89-8 8 7.702 0.526 13.024-5.625 19-8 4.714-1.874 11.094-0.896 14-6-10.469-7.346-14.349 7.082-25 6zm-6-6v3c1.304 1.186 6.349 0.47301 6-3-1.869-1.958-3.663-0.30899-6 0z"/>
  </g>
 </g>
 <g font-family="Comic Sans MS" font-size="32" stroke-width="0" text-anchor="middle">
  <text x="314" y="177">What</text>
  <text x="316" y="222">should</text>
  <text x="297" y="263">I do?</text>
 </g>
</svg>
